<?xml version="1.0" encoding="UTF-8" standalone="no"?>
<!-- Created with Inkscape (http://www.inkscape.org/) -->

<svg
   xmlns:dc="http://purl.org/dc/elements/1.1/"
   xmlns:cc="http://creativecommons.org/ns#"
   xmlns:rdf="http://www.w3.org/1999/02/22-rdf-syntax-ns#"
   xmlns:svg="http://www.w3.org/2000/svg"
   xmlns="http://www.w3.org/2000/svg"
   xmlns:sodipodi="http://sodipodi.sourceforge.net/DTD/sodipodi-0.dtd"
   xmlns:inkscape="http://www.inkscape.org/namespaces/inkscape"
   width="744.09448819"
   height="1052.3622047"
   id="svg2"
   version="1.1"
   inkscape:version="0.48.4 r9939"
   sodipodi:docname="cellBot_centriole.svg">
  <defs
     id="defs4" />
  <sodipodi:namedview
     id="base"
     pagecolor="#ffffff"
     bordercolor="#666666"
     borderopacity="1.0"
     inkscape:pageopacity="0.0"
     inkscape:pageshadow="2"
     inkscape:zoom="1.1623274"
     inkscape:cx="237.18159"
     inkscape:cy="689.55658"
     inkscape:document-units="px"
     inkscape:current-layer="g3857"
     showgrid="false"
     inkscape:window-width="1885"
     inkscape:window-height="1056"
     inkscape:window-x="35"
     inkscape:window-y="24"
     inkscape:window-maximized="1" />
  <metadata
     id="metadata7">
    <rdf:RDF>
      <cc:Work
         rdf:about="">
        <dc:format>image/svg+xml</dc:format>
        <dc:type
           rdf:resource="http://purl.org/dc/dcmitype/StillImage" />
        <dc:title></dc:title>
      </cc:Work>
    </rdf:RDF>
  </metadata>
  <g
     inkscape:groupmode="layer"
     id="layer2"
     inkscape:label="Layer 0"
     sodipodi:insensitive="true">
    <path
       sodipodi:type="arc"
       style="fill:#ffffff;fill-opacity:1;stroke:#5a5a5a;stroke-width:0.46689904;stroke-linecap:butt;stroke-miterlimit:4;stroke-opacity:1;stroke-dasharray:none"
       id="path3004"
       sodipodi:cx="335.66092"
       sodipodi:cy="199.93956"
       sodipodi:rx="12.489709"
       sodipodi:ry="12.489709"
       d="m 348.15063,199.93956 a 12.489709,12.489709 0 1 1 -24.97942,0 12.489709,12.489709 0 1 1 24.97942,0 z"
       transform="matrix(2.1417907,0,0,2.1417907,-356.71389,-43.79943)" />
    <path
       sodipodi:type="star"
       style="fill:#ffffff;fill-opacity:1;stroke:#5a5a5a;stroke-width:2.64458179;stroke-linecap:butt;stroke-miterlimit:4;stroke-opacity:1;stroke-dasharray:none"
       id="path3006"
       sodipodi:sides="12"
       sodipodi:cx="120.99405"
       sodipodi:cy="156.22559"
       sodipodi:r1="34.813663"
       sodipodi:r2="17.406832"
       sodipodi:arg1="0.73781506"
       sodipodi:arg2="0.99961445"
       inkscape:flatsided="false"
       inkscape:rounded="0.05"
       inkscape:randomized="0"
       d="m 146.75407,179.64379 c -0.62408,0.68649 -15.56893,-9.27606 -16.34942,-8.77449 -0.78049,0.50157 2.07284,18.23458 1.18913,18.51706 -0.88371,0.28247 -8.84506,-15.81777 -9.77177,-15.77364 -0.92671,0.0441 -7.32215,16.82803 -8.22871,16.6308 -0.90655,-0.19722 0.24884,-18.12112 -0.57578,-18.54626 -0.82462,-0.42514 -14.755188,10.91243 -15.441675,10.28835 -0.686487,-0.62408 9.276055,-15.56894 8.774485,-16.34943 -0.50157,-0.78049 -18.234578,2.07285 -18.517053,1.18914 -0.282476,-0.88371 15.817773,-8.84507 15.773643,-9.77178 -0.0441,-0.92671 -16.828034,-7.32215 -16.630809,-8.2287 0.197225,-0.90656 18.121129,0.24883 18.546259,-0.57579 0.42514,-0.82461 -10.912425,-14.75518 -10.288346,-15.44167 0.624079,-0.68649 15.568936,9.27606 16.349426,8.77449 0.78049,-0.50157 -2.07285,-18.23458 -1.18913,-18.51706 0.88371,-0.28247 8.84506,15.81778 9.77177,15.77365 0.92671,-0.0441 7.32215,-16.82804 8.22871,-16.63081 0.90655,0.19722 -0.24884,18.12112 0.57578,18.54626 0.82462,0.42514 14.75519,-10.91243 15.44167,-10.28835 0.68649,0.62408 -9.27606,15.56894 -8.77448,16.34943 0.50157,0.78049 18.23458,-2.07285 18.51705,-1.18914 0.28248,0.88371 -15.81777,8.84507 -15.77364,9.77178 0.0441,0.92671 16.82803,7.32215 16.63081,8.2287 -0.19723,0.90656 -18.12113,-0.24883 -18.54627,0.57579 -0.42513,0.82462 10.91243,14.75518 10.28835,15.44167 z"
       inkscape:transform-center-x="1.3713484"
       inkscape:transform-center-y="-1.954119"
       transform="matrix(0.37813161,0,0,0.37813161,316.44987,325.35543)" />
    <path
       transform="matrix(1.1873585,0,0,1.1873585,-36.348303,147.02932)"
       d="m 348.15063,199.93956 a 12.489709,12.489709 0 1 1 -24.97942,0 12.489709,12.489709 0 1 1 24.97942,0 z"
       sodipodi:ry="12.489709"
       sodipodi:rx="12.489709"
       sodipodi:cy="199.93956"
       sodipodi:cx="335.66092"
       id="path3776"
       style="fill:none;stroke:#5a5a5a;stroke-width:0.84220564;stroke-linecap:butt;stroke-miterlimit:4;stroke-opacity:1;stroke-dasharray:none"
       sodipodi:type="arc" />
    <path
       sodipodi:type="arc"
       style="fill:none;stroke:#5a5a5a;stroke-width:2.45627046;stroke-linecap:butt;stroke-miterlimit:4;stroke-opacity:1;stroke-dasharray:none"
       id="path3778"
       sodipodi:cx="335.66092"
       sodipodi:cy="199.93956"
       sodipodi:rx="12.489709"
       sodipodi:ry="12.489709"
       d="m 348.15063,199.93956 a 12.489709,12.489709 0 1 1 -24.97942,0 12.489709,12.489709 0 1 1 24.97942,0 z"
       transform="matrix(0.4071213,0,0,0.4071213,225.54683,303.0296)" />
  </g>
  <g
     inkscape:label="Layer collapsed"
     inkscape:groupmode="layer"
     id="layer1"
     style="display:none"
     sodipodi:insensitive="true">
    <rect
       ry="1.9156959"
       y="343.8624"
       x="-522.46497"
       height="5.7251644"
       width="277.93042"
       id="rect3788"
       style="fill:none;stroke:#5a5a5a;stroke-width:1;stroke-linecap:butt;stroke-miterlimit:4;stroke-opacity:1;stroke-dasharray:none"
       transform="matrix(0,-1,1,0,0,0)" />
    <rect
       transform="matrix(0,-1,1,0,0,0)"
       style="fill:none;stroke:#5a5a5a;stroke-width:1;stroke-linecap:butt;stroke-miterlimit:4;stroke-opacity:1;stroke-dasharray:none"
       id="rect3801"
       width="277.93042"
       height="5.7251644"
       x="-522.46497"
       y="375.8624"
       ry="1.9156959" />
    <rect
       style="fill:none;stroke:#5a5a5a;stroke-width:1;stroke-linecap:butt;stroke-miterlimit:4;stroke-opacity:1;stroke-dasharray:none"
       id="rect3803"
       width="277.93042"
       height="5.7251644"
       x="223.75977"
       y="364.63718"
       ry="1.9156959" />
    <rect
       ry="1.9156959"
       y="396.63718"
       x="223.75977"
       height="5.7251644"
       width="277.93042"
       id="rect3805"
       style="fill:none;stroke:#5a5a5a;stroke-width:1;stroke-linecap:butt;stroke-miterlimit:4;stroke-opacity:1;stroke-dasharray:none" />
  </g>
  <g
     inkscape:label="Layer expanded 12"
     inkscape:groupmode="layer"
     id="g3857">
    <rect
       ry="1.9156959"
       y="343.8624"
       x="-656.46497"
       height="5.7251644"
       width="277.93042"
       id="rect3859"
       style="fill:none;stroke:#5a5a5a;stroke-width:1;stroke-linecap:butt;stroke-miterlimit:4;stroke-opacity:1;stroke-dasharray:none"
       transform="matrix(0,-1,1,0,0,0)" />
    <rect
       transform="matrix(0,-1,1,0,0,0)"
       style="fill:none;stroke:#5a5a5a;stroke-width:1;stroke-linecap:butt;stroke-miterlimit:4;stroke-opacity:1;stroke-dasharray:none"
       id="rect3861"
       width="277.93042"
       height="5.7251644"
       x="-388.46497"
       y="375.8624"
       ry="1.9156959" />
    <rect
       style="fill:none;stroke:#5a5a5a;stroke-width:1;stroke-linecap:butt;stroke-miterlimit:4;stroke-opacity:1;stroke-dasharray:none"
       id="rect3863"
       width="277.93042"
       height="5.7251644"
       x="89.759773"
       y="364.63718"
       ry="1.9156959" />
    <rect
       ry="1.9156959"
       y="396.63718"
       x="357.75977"
       height="5.7251644"
       width="277.93042"
       id="rect3865"
       style="fill:none;stroke:#5a5a5a;stroke-width:1;stroke-linecap:butt;stroke-miterlimit:4;stroke-opacity:1;stroke-dasharray:none" />
    <rect
       ry="1.9156959"
       y="494.62042"
       x="-150.58603"
       height="5.7251644"
       width="277.93042"
       id="rect3883"
       style="fill:none;stroke:#5a5a5a;stroke-width:1;stroke-linecap:butt;stroke-miterlimit:4;stroke-opacity:1;stroke-dasharray:none"
       transform="matrix(0.8660254,-0.5,0.5,0.8660254,0,0)" />
    <rect
       transform="matrix(0.8660254,-0.5,0.5,0.8660254,0,0)"
       style="fill:none;stroke:#5a5a5a;stroke-width:1;stroke-linecap:butt;stroke-miterlimit:4;stroke-opacity:1;stroke-dasharray:none"
       id="rect3885"
       width="277.93042"
       height="5.7251644"
       x="117.41396"
       y="526.62042"
       ry="1.9156959" />
    <rect
       style="fill:none;stroke:#5a5a5a;stroke-width:1;stroke-linecap:butt;stroke-miterlimit:4;stroke-opacity:1;stroke-dasharray:none"
       id="rect3887"
       width="277.93042"
       height="5.7251644"
       x="240.51781"
       y="-141.24174"
       ry="1.9156959"
       transform="matrix(0.5,0.8660254,-0.8660254,0.5,0,0)" />
    <rect
       ry="1.9156959"
       y="-109.24174"
       x="508.51782"
       height="5.7251644"
       width="277.93042"
       id="rect3889"
       style="fill:none;stroke:#5a5a5a;stroke-width:1;stroke-linecap:butt;stroke-miterlimit:4;stroke-opacity:1;stroke-dasharray:none"
       transform="matrix(0.5,0.8660254,-0.8660254,0.5,0,0)" />
    <rect
       ry="1.9156959"
       y="487.01633"
       x="-423.72324"
       height="5.7251644"
       width="277.93042"
       id="rect3899"
       style="fill:none;stroke:#5a5a5a;stroke-width:1;stroke-linecap:butt;stroke-miterlimit:4;stroke-opacity:1;stroke-dasharray:none"
       transform="matrix(0.5,-0.8660254,0.8660254,0.5,0,0)" />
    <rect
       transform="matrix(0.5,-0.8660254,0.8660254,0.5,0,0)"
       style="fill:none;stroke:#5a5a5a;stroke-width:1;stroke-linecap:butt;stroke-miterlimit:4;stroke-opacity:1;stroke-dasharray:none"
       id="rect3901"
       width="277.93042"
       height="5.7251644"
       x="-155.72325"
       y="519.01636"
       ry="1.9156959" />
    <rect
       transform="matrix(0.8660254,0.5,-0.5,0.8660254,0,0)"
       style="fill:none;stroke:#5a5a5a;stroke-width:1;stroke-linecap:butt;stroke-miterlimit:4;stroke-opacity:1;stroke-dasharray:none"
       id="rect3903"
       width="277.93042"
       height="5.7251644"
       x="232.91371"
       y="131.89546"
       ry="1.9156959" />
    <rect
       transform="matrix(0.8660254,0.5,-0.5,0.8660254,0,0)"
       ry="1.9156959"
       y="163.89546"
       x="500.9137"
       height="5.7251644"
       width="277.93042"
       id="rect3905"
       style="fill:none;stroke:#5a5a5a;stroke-width:1;stroke-linecap:butt;stroke-miterlimit:4;stroke-opacity:1;stroke-dasharray:none" />
  </g>
  <g
     id="g3807"
     inkscape:groupmode="layer"
     inkscape:label="Layer expanded"
     style="display:none"
     sodipodi:insensitive="true">
    <rect
       transform="matrix(0,-1,1,0,0,0)"
       style="fill:none;stroke:#5a5a5a;stroke-width:1;stroke-linecap:butt;stroke-miterlimit:4;stroke-opacity:1;stroke-dasharray:none"
       id="rect3809"
       width="277.93042"
       height="5.7251644"
       x="-656.46497"
       y="343.8624"
       ry="1.9156959" />
    <rect
       ry="1.9156959"
       y="375.8624"
       x="-388.46497"
       height="5.7251644"
       width="277.93042"
       id="rect3811"
       style="fill:none;stroke:#5a5a5a;stroke-width:1;stroke-linecap:butt;stroke-miterlimit:4;stroke-opacity:1;stroke-dasharray:none"
       transform="matrix(0,-1,1,0,0,0)" />
    <rect
       ry="1.9156959"
       y="364.63718"
       x="89.759773"
       height="5.7251644"
       width="277.93042"
       id="rect3813"
       style="fill:none;stroke:#5a5a5a;stroke-width:1;stroke-linecap:butt;stroke-miterlimit:4;stroke-opacity:1;stroke-dasharray:none" />
    <rect
       style="fill:none;stroke:#5a5a5a;stroke-width:1;stroke-linecap:butt;stroke-miterlimit:4;stroke-opacity:1;stroke-dasharray:none"
       id="rect3815"
       width="277.93042"
       height="5.7251644"
       x="357.75977"
       y="396.63718"
       ry="1.9156959" />
    <rect
       ry="1.9156959"
       y="508.79797"
       x="-287.65518"
       height="5.7251644"
       width="277.93042"
       id="rect3817"
       style="fill:none;stroke:#5a5a5a;stroke-width:1;stroke-linecap:butt;stroke-miterlimit:4;stroke-opacity:1;stroke-dasharray:none"
       transform="matrix(0.70710678,-0.70710678,0.70710678,0.70710678,0,0)" />
    <rect
       transform="matrix(0.70710678,-0.70710678,0.70710678,0.70710678,0,0)"
       style="fill:none;stroke:#5a5a5a;stroke-width:1;stroke-linecap:butt;stroke-miterlimit:4;stroke-opacity:1;stroke-dasharray:none"
       id="rect3819"
       width="277.93042"
       height="5.7251644"
       x="-19.655195"
       y="540.79797"
       ry="1.9156959" />
    <rect
       style="fill:none;stroke:#5a5a5a;stroke-width:1;stroke-linecap:butt;stroke-miterlimit:4;stroke-opacity:1;stroke-dasharray:none"
       id="rect3821"
       width="277.93042"
       height="5.7251644"
       x="254.69536"
       y="-4.1725941"
       ry="1.9156959"
       transform="matrix(0.70710678,0.70710678,-0.70710678,0.70710678,0,0)" />
    <rect
       ry="1.9156959"
       y="27.827406"
       x="522.69537"
       height="5.7251644"
       width="277.93042"
       id="rect3823"
       style="fill:none;stroke:#5a5a5a;stroke-width:1;stroke-linecap:butt;stroke-miterlimit:4;stroke-opacity:1;stroke-dasharray:none"
       transform="matrix(0.70710678,0.70710678,-0.70710678,0.70710678,0,0)" />
    <rect
       ry="1.9156959"
       y="430.75989"
       x="-549.5174"
       height="5.7251644"
       width="277.93042"
       id="rect3825"
       style="fill:none;stroke:#5a5a5a;stroke-width:1;stroke-linecap:butt;stroke-miterlimit:4;stroke-opacity:1;stroke-dasharray:none"
       transform="matrix(0.25881905,-0.96592583,0.96592583,0.25881905,0,0)" />
    <rect
       transform="matrix(0.25881905,-0.96592583,0.96592583,0.25881905,0,0)"
       style="fill:none;stroke:#5a5a5a;stroke-width:1;stroke-linecap:butt;stroke-miterlimit:4;stroke-opacity:1;stroke-dasharray:none"
       id="rect3827"
       width="277.93042"
       height="5.7251644"
       x="-281.5174"
       y="462.75989"
       ry="1.9156959" />
    <rect
       style="fill:none;stroke:#5a5a5a;stroke-width:1;stroke-linecap:butt;stroke-miterlimit:4;stroke-opacity:1;stroke-dasharray:none"
       id="rect3829"
       width="277.93042"
       height="5.7251644"
       x="176.65726"
       y="257.68961"
       ry="1.9156959"
       transform="matrix(0.96592583,0.25881905,-0.25881905,0.96592583,0,0)" />
    <rect
       ry="1.9156959"
       y="289.68961"
       x="444.65726"
       height="5.7251644"
       width="277.93042"
       id="rect3831"
       style="fill:none;stroke:#5a5a5a;stroke-width:1;stroke-linecap:butt;stroke-miterlimit:4;stroke-opacity:1;stroke-dasharray:none"
       transform="matrix(0.96592583,0.25881905,-0.25881905,0.96592583,0,0)" />
    <rect
       transform="matrix(0.8660254,-0.5,0.5,0.8660254,0,0)"
       style="fill:none;stroke:#5a5a5a;stroke-width:1;stroke-linecap:butt;stroke-miterlimit:4;stroke-opacity:1;stroke-dasharray:none"
       id="rect3833"
       width="277.93042"
       height="5.7251644"
       x="-150.58603"
       y="494.62042"
       ry="1.9156959" />
    <rect
       ry="1.9156959"
       y="526.62042"
       x="117.41396"
       height="5.7251644"
       width="277.93042"
       id="rect3835"
       style="fill:none;stroke:#5a5a5a;stroke-width:1;stroke-linecap:butt;stroke-miterlimit:4;stroke-opacity:1;stroke-dasharray:none"
       transform="matrix(0.8660254,-0.5,0.5,0.8660254,0,0)" />
    <rect
       transform="matrix(0.5,0.8660254,-0.8660254,0.5,0,0)"
       ry="1.9156959"
       y="-141.24174"
       x="240.51781"
       height="5.7251644"
       width="277.93042"
       id="rect3837"
       style="fill:none;stroke:#5a5a5a;stroke-width:1;stroke-linecap:butt;stroke-miterlimit:4;stroke-opacity:1;stroke-dasharray:none" />
    <rect
       transform="matrix(0.5,0.8660254,-0.8660254,0.5,0,0)"
       style="fill:none;stroke:#5a5a5a;stroke-width:1;stroke-linecap:butt;stroke-miterlimit:4;stroke-opacity:1;stroke-dasharray:none"
       id="rect3839"
       width="277.93042"
       height="5.7251644"
       x="508.51782"
       y="-109.24174"
       ry="1.9156959" />
    <rect
       ry="1.9156959"
       y="445.44986"
       x="-21.856825"
       height="5.7251644"
       width="277.93042"
       id="rect3841"
       style="fill:none;stroke:#5a5a5a;stroke-width:1;stroke-linecap:butt;stroke-miterlimit:4;stroke-opacity:1;stroke-dasharray:none"
       transform="matrix(0.96592583,-0.25881905,0.25881905,0.96592583,0,0)" />
    <rect
       transform="matrix(0.96592583,-0.25881905,0.25881905,0.96592583,0,0)"
       style="fill:none;stroke:#5a5a5a;stroke-width:1;stroke-linecap:butt;stroke-miterlimit:4;stroke-opacity:1;stroke-dasharray:none"
       id="rect3843"
       width="277.93042"
       height="5.7251644"
       x="246.14317"
       y="477.44986"
       ry="1.9156959" />
    <rect
       style="fill:none;stroke:#5a5a5a;stroke-width:1;stroke-linecap:butt;stroke-miterlimit:4;stroke-opacity:1;stroke-dasharray:none"
       id="rect3845"
       width="277.93042"
       height="5.7251644"
       x="191.34724"
       y="-269.97098"
       ry="1.9156959"
       transform="matrix(0.25881905,0.96592583,-0.96592583,0.25881905,0,0)" />
    <rect
       ry="1.9156959"
       y="-237.97096"
       x="459.34723"
       height="5.7251644"
       width="277.93042"
       id="rect3847"
       style="fill:none;stroke:#5a5a5a;stroke-width:1;stroke-linecap:butt;stroke-miterlimit:4;stroke-opacity:1;stroke-dasharray:none"
       transform="matrix(0.25881905,0.96592583,-0.96592583,0.25881905,0,0)" />
    <rect
       transform="matrix(0.5,-0.8660254,0.8660254,0.5,0,0)"
       style="fill:none;stroke:#5a5a5a;stroke-width:1;stroke-linecap:butt;stroke-miterlimit:4;stroke-opacity:1;stroke-dasharray:none"
       id="rect3849"
       width="277.93042"
       height="5.7251644"
       x="-423.72324"
       y="487.01633"
       ry="1.9156959" />
    <rect
       ry="1.9156959"
       y="519.01636"
       x="-155.72325"
       height="5.7251644"
       width="277.93042"
       id="rect3851"
       style="fill:none;stroke:#5a5a5a;stroke-width:1;stroke-linecap:butt;stroke-miterlimit:4;stroke-opacity:1;stroke-dasharray:none"
       transform="matrix(0.5,-0.8660254,0.8660254,0.5,0,0)" />
    <rect
       ry="1.9156959"
       y="131.89546"
       x="232.91371"
       height="5.7251644"
       width="277.93042"
       id="rect3853"
       style="fill:none;stroke:#5a5a5a;stroke-width:1;stroke-linecap:butt;stroke-miterlimit:4;stroke-opacity:1;stroke-dasharray:none"
       transform="matrix(0.8660254,0.5,-0.5,0.8660254,0,0)" />
    <rect
       style="fill:none;stroke:#5a5a5a;stroke-width:1;stroke-linecap:butt;stroke-miterlimit:4;stroke-opacity:1;stroke-dasharray:none"
       id="rect3855"
       width="277.93042"
       height="5.7251644"
       x="500.9137"
       y="163.89546"
       ry="1.9156959"
       transform="matrix(0.8660254,0.5,-0.5,0.8660254,0,0)" />
  </g>
</svg>
